<svg width="29" height="28" viewBox="0 0 29 28" fill="none" xmlns="http://www.w3.org/2000/svg">
<path d="M23.8723 14.0003V8.16699H26.2057V15.167H23.8723M23.8723 19.8337H26.2057V17.5003H23.8723M12.2056 15.167C15.3206 15.167 21.539 16.7303 21.539 19.8337V23.3337H2.87231V19.8337C2.87231 16.7303 9.09065 15.167 12.2056 15.167ZM12.2056 4.66699C13.4433 4.66699 14.6303 5.15866 15.5055 6.03383C16.3807 6.909 16.8723 8.09598 16.8723 9.33366C16.8723 10.5713 16.3807 11.7583 15.5055 12.6335C14.6303 13.5087 13.4433 14.0003 12.2056 14.0003C10.968 14.0003 9.78099 13.5087 8.90582 12.6335C8.03065 11.7583 7.53898 10.5713 7.53898 9.33366C7.53898 8.09598 8.03065 6.909 8.90582 6.03383C9.78099 5.15866 10.968 4.66699 12.2056 4.66699ZM12.2056 17.3837C8.74065 17.3837 5.08898 19.087 5.08898 19.8337V21.117H19.3223V19.8337C19.3223 19.087 15.6706 17.3837 12.2056 17.3837ZM12.2056 6.88366C11.5559 6.88366 10.9327 7.14178 10.4732 7.60125C10.0138 8.06071 9.75565 8.68388 9.75565 9.33366C9.75565 9.98344 10.0138 10.6066 10.4732 11.0661C10.9327 11.5255 11.5559 11.7837 12.2056 11.7837C12.8554 11.7837 13.4786 11.5255 13.9381 11.0661C14.3975 10.6066 14.6556 9.98344 14.6556 9.33366C14.6556 8.68388 14.3975 8.06071 13.9381 7.60125C13.4786 7.14178 12.8554 6.88366 12.2056 6.88366Z" fill="#604240"/>
</svg>
