<svg width="22" height="20" viewBox="0 0 22 20" fill="none" xmlns="http://www.w3.org/2000/svg">
<g id="uil:calender">
<path id="Vector" d="M17.4166 4.02934H15.5833V3.2593C15.5833 3.05507 15.4867 2.85921 15.3148 2.7148C15.1429 2.57039 14.9097 2.48926 14.6666 2.48926C14.4235 2.48926 14.1903 2.57039 14.0184 2.7148C13.8465 2.85921 13.7499 3.05507 13.7499 3.2593V4.02934H8.24992V3.2593C8.24992 3.05507 8.15334 2.85921 7.98143 2.7148C7.80952 2.57039 7.57637 2.48926 7.33325 2.48926C7.09014 2.48926 6.85698 2.57039 6.68507 2.7148C6.51316 2.85921 6.41658 3.05507 6.41658 3.2593V4.02934H4.58325C3.85391 4.02934 3.15443 4.27272 2.63871 4.70595C2.12298 5.13918 1.83325 5.72677 1.83325 6.33945V15.5799C1.83325 16.1926 2.12298 16.7802 2.63871 17.2134C3.15443 17.6466 3.85391 17.89 4.58325 17.89H17.4166C18.1459 17.89 18.8454 17.6466 19.3611 17.2134C19.8769 16.7802 20.1666 16.1926 20.1666 15.5799V6.33945C20.1666 5.72677 19.8769 5.13918 19.3611 4.70595C18.8454 4.27272 18.1459 4.02934 17.4166 4.02934ZM18.3333 15.5799C18.3333 15.7841 18.2367 15.98 18.0648 16.1244C17.8929 16.2688 17.6597 16.35 17.4166 16.35H4.58325C4.34014 16.35 4.10698 16.2688 3.93507 16.1244C3.76316 15.98 3.66659 15.7841 3.66659 15.5799V10.1896H18.3333V15.5799ZM18.3333 8.64957H3.66659V6.33945C3.66659 6.13522 3.76316 5.93936 3.93507 5.79495C4.10698 5.65054 4.34014 5.56941 4.58325 5.56941H6.41658V6.33945C6.41658 6.54368 6.51316 6.73954 6.68507 6.88395C6.85698 7.02836 7.09014 7.10949 7.33325 7.10949C7.57637 7.10949 7.80952 7.02836 7.98143 6.88395C8.15334 6.73954 8.24992 6.54368 8.24992 6.33945V5.56941H13.7499V6.33945C13.7499 6.54368 13.8465 6.73954 14.0184 6.88395C14.1903 7.02836 14.4235 7.10949 14.6666 7.10949C14.9097 7.10949 15.1429 7.02836 15.3148 6.88395C15.4867 6.73954 15.5833 6.54368 15.5833 6.33945V5.56941H17.4166C17.6597 5.56941 17.8929 5.65054 18.0648 5.79495C18.2367 5.93936 18.3333 6.13522 18.3333 6.33945V8.64957Z" fill="#604240"/>
</g>
</svg>
