<svg width="29" height="28" viewBox="0 0 29 28" fill="none" xmlns="http://www.w3.org/2000/svg">
<path d="M25.7745 19.1926H9.49131L10.3089 17.5273L23.8933 17.5027C24.3526 17.5027 24.7464 17.1746 24.8284 16.7207L26.7097 6.19062C26.7589 5.91445 26.6851 5.63008 26.5046 5.41406C26.4154 5.30775 26.3041 5.22211 26.1785 5.16309C26.0529 5.10407 25.916 5.07308 25.7772 5.07227L8.496 5.01484L8.34834 4.32031C8.25537 3.87734 7.85615 3.55469 7.40225 3.55469H3.17764C2.92164 3.55469 2.67613 3.65638 2.49511 3.8374C2.3141 4.01841 2.2124 4.26393 2.2124 4.51992C2.2124 4.77592 2.3141 5.02143 2.49511 5.20245C2.67613 5.38346 2.92164 5.48516 3.17764 5.48516H6.62021L7.26553 8.55312L8.8542 16.2449L6.80889 19.5836C6.70267 19.727 6.63869 19.8972 6.6242 20.075C6.6097 20.2528 6.64526 20.4312 6.72686 20.5898C6.89092 20.9152 7.22178 21.1203 7.58818 21.1203H9.30537C8.93929 21.6065 8.74155 22.1988 8.74209 22.8074C8.74209 24.3551 9.9999 25.6129 11.5476 25.6129C13.0952 25.6129 14.353 24.3551 14.353 22.8074C14.353 22.1977 14.1507 21.6043 13.7897 21.1203H18.1948C17.8287 21.6065 17.631 22.1988 17.6315 22.8074C17.6315 24.3551 18.8894 25.6129 20.437 25.6129C21.9847 25.6129 23.2425 24.3551 23.2425 22.8074C23.2425 22.1977 23.0401 21.6043 22.6792 21.1203H25.7772C26.3077 21.1203 26.7425 20.6883 26.7425 20.1551C26.7409 19.8994 26.6382 19.6546 26.4569 19.4743C26.2755 19.294 26.0302 19.1927 25.7745 19.1926ZM8.89795 6.91797L24.6425 6.96992L23.1003 15.6051L10.7327 15.627L8.89795 6.91797ZM11.5476 23.6715C11.0718 23.6715 10.6835 23.2832 10.6835 22.8074C10.6835 22.3316 11.0718 21.9434 11.5476 21.9434C12.0233 21.9434 12.4116 22.3316 12.4116 22.8074C12.4116 23.0366 12.3206 23.2564 12.1585 23.4184C11.9965 23.5805 11.7767 23.6715 11.5476 23.6715ZM20.437 23.6715C19.9612 23.6715 19.5729 23.2832 19.5729 22.8074C19.5729 22.3316 19.9612 21.9434 20.437 21.9434C20.9128 21.9434 21.3011 22.3316 21.3011 22.8074C21.3011 23.0366 21.21 23.2564 21.048 23.4184C20.886 23.5805 20.6662 23.6715 20.437 23.6715Z" fill="#604240"/>
</svg>
