<svg width="25" height="25" viewBox="0 0 25 25" fill="none" xmlns="http://www.w3.org/2000/svg">
<path d="M22.0237 7.14267H8.92846M6.5475 7.14267H2.97607M22.0237 19.0474H8.92846M6.5475 19.0474H2.97607M16.0713 13.0951H2.97607M22.0237 13.0951H18.4523M7.73798 4.76172C8.05371 4.76172 8.35652 4.88714 8.57977 5.1104C8.80303 5.33366 8.92846 5.63646 8.92846 5.95219V8.33315C8.92846 8.64888 8.80303 8.95168 8.57977 9.17494C8.35652 9.3982 8.05371 9.52362 7.73798 9.52362C7.42225 9.52362 7.11944 9.3982 6.89619 9.17494C6.67293 8.95168 6.5475 8.64888 6.5475 8.33315V5.95219C6.5475 5.63646 6.67293 5.33366 6.89619 5.1104C7.11944 4.88714 7.42225 4.76172 7.73798 4.76172V4.76172ZM7.73798 16.6665C8.05371 16.6665 8.35652 16.7919 8.57977 17.0152C8.80303 17.2384 8.92846 17.5412 8.92846 17.857V20.2379C8.92846 20.5536 8.80303 20.8564 8.57977 21.0797C8.35652 21.303 8.05371 21.4284 7.73798 21.4284C7.42225 21.4284 7.11944 21.303 6.89619 21.0797C6.67293 20.8564 6.5475 20.5536 6.5475 20.2379V17.857C6.5475 17.5412 6.67293 17.2384 6.89619 17.0152C7.11944 16.7919 7.42225 16.6665 7.73798 16.6665ZM17.2618 10.7141C17.5775 10.7141 17.8803 10.8395 18.1036 11.0628C18.3268 11.286 18.4523 11.5888 18.4523 11.9046V14.2855C18.4523 14.6013 18.3268 14.9041 18.1036 15.1273C17.8803 15.3506 17.5775 15.476 17.2618 15.476C16.9461 15.476 16.6433 15.3506 16.42 15.1273C16.1967 14.9041 16.0713 14.6013 16.0713 14.2855V11.9046C16.0713 11.5888 16.1967 11.286 16.42 11.0628C16.6433 10.8395 16.9461 10.7141 17.2618 10.7141V10.7141Z" stroke="#604240" stroke-linecap="round" stroke-linejoin="round"/>
</svg>
