<svg width="56" height="55" viewBox="0 0 56 55" fill="none" xmlns="http://www.w3.org/2000/svg">
<g id="Icon / Instagram">
<path id="Oval" fill-rule="evenodd" clip-rule="evenodd" d="M27.6002 54.6005C42.8434 54.6005 55.2005 42.3778 55.2005 27.3002C55.2005 12.2227 42.8434 0 27.6002 0C12.3571 0 0 12.2227 0 27.3002C0 42.3778 12.3571 54.6005 27.6002 54.6005Z" fill="#2F2F2F"/>
<g id="Icon">
<path id="Shape" fill-rule="evenodd" clip-rule="evenodd" d="M20.1294 10.9219H34.8878C39.9001 10.9219 43.9778 14.9552 43.9776 19.9126V34.5106C43.9776 39.468 39.9001 43.5014 34.8878 43.5014H20.1294C15.1175 43.5014 11.04 39.4682 11.04 34.5106V19.9126C11.04 14.9552 15.1175 10.9219 20.1294 10.9219ZM34.888 40.6106C38.2887 40.6106 41.0554 37.8742 41.0554 34.5105H41.0552V19.9125C41.0552 16.549 38.2885 13.8123 34.8878 13.8123H20.1294C16.7289 13.8123 13.9624 16.549 13.9624 19.9125V34.5105C13.9624 37.8742 16.7289 40.6108 20.1294 40.6106H34.888Z" fill="#FF8D24"/>
<path id="Shape_2" fill-rule="evenodd" clip-rule="evenodd" d="M19.0217 27.2113C19.0217 22.5823 22.829 18.8164 27.5089 18.8164C32.1888 18.8164 35.9961 22.5823 35.9961 27.2113C35.9961 31.8402 32.1888 35.6059 27.5089 35.6059C22.829 35.6059 19.0217 31.8402 19.0217 27.2113ZM21.9441 27.2109C21.9441 30.2459 24.4406 32.7149 27.5089 32.7149C30.5772 32.7149 33.0737 30.2459 33.0737 27.2109C33.0737 24.1758 30.5774 21.7066 27.5089 21.7066C24.4404 21.7066 21.9441 24.1758 21.9441 27.2109Z" fill="#FF8D24"/>
<path id="Shape_3" d="M36.3518 16.3652C35.7888 16.3652 35.2357 16.5907 34.838 16.9858C34.4384 17.3789 34.2087 17.9262 34.2087 18.485C34.2087 19.0421 34.4386 19.5892 34.838 19.9843C35.2355 20.3774 35.7888 20.6048 36.3518 20.6048C36.9168 20.6048 37.4682 20.3774 37.8676 19.9843C38.2669 19.5892 38.4949 19.0419 38.4949 18.485C38.4949 17.9262 38.2669 17.3789 37.8676 16.9858C37.4701 16.5907 36.9168 16.3652 36.3518 16.3652Z" fill="#FF8D24"/>
</g>
</g>
</svg>
