<svg width="20" height="20" viewBox="0 0 20 20" fill="none" xmlns="http://www.w3.org/2000/svg">
<g id="akar-icons:linkedin-box-fill" clip-path="url(#clip0_78_1742)">
<path id="Vector" fill-rule="evenodd" clip-rule="evenodd" d="M0.833336 2.36468C0.833336 1.95845 0.994708 1.56887 1.28195 1.28162C1.56919 0.994381 1.95878 0.83301 2.365 0.83301H17.6333C17.8346 0.832681 18.034 0.872062 18.2201 0.948899C18.4062 1.02574 18.5753 1.13852 18.7177 1.28079C18.8601 1.42306 18.9731 1.59203 19.0501 1.77802C19.1272 1.96401 19.1668 2.16336 19.1667 2.36468V17.633C19.1669 17.8344 19.1274 18.0338 19.0505 18.2199C18.9736 18.4059 18.8607 18.575 18.7184 18.7174C18.576 18.8599 18.407 18.9728 18.221 19.0498C18.0349 19.1269 17.8355 19.1665 17.6342 19.1663H2.365C2.16379 19.1663 1.96455 19.1267 1.77867 19.0497C1.59278 18.9726 1.4239 18.8598 1.28166 18.7174C1.13942 18.5751 1.02661 18.4062 0.949688 18.2202C0.872764 18.0343 0.833227 17.8351 0.833336 17.6338V2.36468ZM8.09 7.82301H10.5725V9.06968C10.9308 8.35301 11.8475 7.70801 13.225 7.70801C15.8658 7.70801 16.4917 9.13551 16.4917 11.7547V16.6063H13.8192V12.3513C13.8192 10.8597 13.4608 10.018 12.5508 10.018C11.2883 10.018 10.7633 10.9255 10.7633 12.3513V16.6063H8.09V7.82301ZM3.50667 16.4922H6.18V7.70801H3.50667V16.4913V16.4922ZM6.5625 4.84301C6.56754 5.0719 6.52681 5.2995 6.4427 5.51244C6.35859 5.72538 6.2328 5.91937 6.0727 6.08304C5.9126 6.2467 5.72142 6.37674 5.51038 6.46552C5.29935 6.55429 5.0727 6.60002 4.84375 6.60002C4.6148 6.60002 4.38816 6.55429 4.17712 6.46552C3.96609 6.37674 3.77491 6.2467 3.61481 6.08304C3.45471 5.91937 3.32891 5.72538 3.2448 5.51244C3.16069 5.2995 3.11996 5.0719 3.125 4.84301C3.1349 4.39372 3.32032 3.96617 3.64157 3.65192C3.96282 3.33766 4.39436 3.16169 4.84375 3.16169C5.29315 3.16169 5.72468 3.33766 6.04593 3.65192C6.36718 3.96617 6.55261 4.39372 6.5625 4.84301V4.84301Z" fill="#604240"/>
</g>
<defs>
<clipPath id="clip0_78_1742">
<rect width="20" height="20" fill="white"/>
</clipPath>
</defs>
</svg>
