<svg width="18" height="18" viewBox="0 0 18 18" fill="none" xmlns="http://www.w3.org/2000/svg">
<path d="M13.6666 17.1663C12.7383 17.1663 11.8481 16.7976 11.1917 16.1412C10.5353 15.4848 10.1666 14.5946 10.1666 13.6663C10.1666 12.7381 10.5353 11.8478 11.1917 11.1915C11.8481 10.5351 12.7383 10.1663 13.6666 10.1663C14.5948 10.1663 15.4851 10.5351 16.1415 11.1915C16.7978 11.8478 17.1666 12.7381 17.1666 13.6663C17.1666 14.5946 16.7978 15.4848 16.1415 16.1412C15.4851 16.7976 14.5948 17.1663 13.6666 17.1663ZM4.33325 17.1663C3.40499 17.1663 2.51476 16.7976 1.85838 16.1412C1.202 15.4848 0.833252 14.5946 0.833252 13.6663C0.833252 12.7381 1.202 11.8478 1.85838 11.1915C2.51476 10.5351 3.40499 10.1663 4.33325 10.1663C5.26151 10.1663 6.15175 10.5351 6.80813 11.1915C7.4645 11.8478 7.83325 12.7381 7.83325 13.6663C7.83325 14.5946 7.4645 15.4848 6.80813 16.1412C6.15175 16.7976 5.26151 17.1663 4.33325 17.1663ZM13.6666 7.83301C12.7383 7.83301 11.8481 7.46426 11.1917 6.80788C10.5353 6.15151 10.1666 5.26127 10.1666 4.33301C10.1666 3.40475 10.5353 2.51451 11.1917 1.85813C11.8481 1.20176 12.7383 0.833008 13.6666 0.833008C14.5948 0.833008 15.4851 1.20176 16.1415 1.85813C16.7978 2.51451 17.1666 3.40475 17.1666 4.33301C17.1666 5.26127 16.7978 6.15151 16.1415 6.80788C15.4851 7.46426 14.5948 7.83301 13.6666 7.83301ZM4.33325 7.83301C3.40499 7.83301 2.51476 7.46426 1.85838 6.80788C1.202 6.15151 0.833252 5.26127 0.833252 4.33301C0.833252 3.40475 1.202 2.51451 1.85838 1.85813C2.51476 1.20176 3.40499 0.833008 4.33325 0.833008C5.26151 0.833008 6.15175 1.20176 6.80813 1.85813C7.4645 2.51451 7.83325 3.40475 7.83325 4.33301C7.83325 5.26127 7.4645 6.15151 6.80813 6.80788C6.15175 7.46426 5.26151 7.83301 4.33325 7.83301Z" fill="#604240"/>
</svg>
